<svg xmlns="http://www.w3.org/2000/svg" viewBox="0 0 407.54 485.1"><defs><style>.cls-1{fill:#75378b;}.cls-2{fill:#ffd73a;}</style></defs><g id="Layer_2" data-name="Layer 2"><g id="Layer_1-2" data-name="Layer 1"><path class="cls-1" d="M267.3,485.1c-1.54-1.14-3.13-2.22-4.6-3.44A1062.83,1062.83,0,0,1,162,387.58C129.62,353,99.77,316.5,76.35,275.14c-16.75-29.6-29.7-60.53-32.06-95Q40.92,130.77,73.8,93.94C91,74.69,112.42,61.15,135.6,50.31c46.33-21.65,95.67-32.77,146-39.46C317.75,6,354.27,3.58,390.66.23c5.19-.48,10.46-.07,16.88-.07-2.73,1.61-4.47,2.69-6.26,3.68-55,30.39-104.79,67.6-147,114.45-24.94,27.65-45.56,58-59.32,92.81C179.52,250,175,290,183.08,331.27c9,46.43,31.27,86.48,59.94,123.35,7.92,10.2,16.5,19.9,24.79,29.82ZM209.72,27.86c-33.37,9.08-65.61,21-94.52,40.49-24.88,16.78-44.73,37.8-54.25,67-9,27.74-6.51,55.35,1.74,82.76,10.89,36.18,29.94,68.12,51.77,98.54,30.76,42.87,67,80.9,105.14,117.13a2.33,2.33,0,0,0,2.23.67c-4.83-5.23-9.64-10.47-14.49-15.68-36.5-39.22-70.18-80.59-96.54-127.47-16.35-29.1-29.47-59.46-34.22-92.88-7.52-53,11-95,53.3-127,28.45-21.54,61-34.64,94.8-44.84,10.68-3.21,21.51-5.91,32.28-8.85-.09-.4-.19-.79-.28-1.19C241,20.26,225.25,23.63,209.72,27.86Z"/><path class="cls-1" d="M9.75,335.63c3.34-4.47,6-8.38,9-12.05,12.25-15,23.74-18.43,41.73-11.26,10.32,4.12,20,9.8,30,14.81,1.83.92,3.56,2,6.06,2.13-4.34-5-8.77-9.87-13-14.92C58.11,284,41.61,249.5,36.13,210.15c-4.71-33.92-.39-66.51,16.15-97a4.28,4.28,0,0,0,.44-3.71c-3.45,5.49-7.16,10.82-10.31,16.47C13.59,177.71-1.51,233,.12,292.5a122.42,122.42,0,0,0,7.24,37.92C7.92,332,8.76,333.5,9.75,335.63Z"/><path class="cls-2" d="M256.68,16.5c-15.66,3.76-31.43,7.13-47,11.36-33.37,9.08-65.61,21-94.52,40.49-24.88,16.78-44.73,37.8-54.25,67-9,27.74-6.51,55.35,1.74,82.76,10.89,36.18,29.94,68.12,51.77,98.54,30.76,42.87,67,80.9,105.14,117.13a2.33,2.33,0,0,0,2.23.67c-4.83-5.23-9.64-10.47-14.49-15.68-36.5-39.22-70.18-80.59-96.54-127.47-16.35-29.1-29.47-59.46-34.22-92.88-7.52-53,11-95,53.3-127,28.45-21.54,61-34.64,94.8-44.84,10.68-3.21,21.51-5.91,32.28-8.85C256.87,17.29,256.77,16.9,256.68,16.5Z"/></g></g></svg>